External Loads File
version=1
nRows=39
nColumns=13
Range=5.000000e-03-10 seconds
endheader
time 	forceRightX 	forceRightY 	forceRightZ 	pointRightX 	pointRightY 	pointRightZ 	forceLeftX 	forceLeftY 	forceLeftZ 	pointLeftX 	pointLeftY 	pointLeftZ 		
0.005000 13.875118 254.295903 -0.000000 0.306702 0.178555 -0.137444 79.914772 78.075682 -0.000000 0.218737 0.481422 -0.375421
0.010000 14.446499 254.675321 -0.000000 0.306702 0.178581 -0.137433 79.883199 78.399166 -0.000000 0.218737 0.481415 -0.375414
0.015000 15.017490 255.023137 -0.000000 0.306703 0.178576 -0.137442 79.846925 78.673223 -0.000000 0.218733 0.481409 -0.375417
0.020000 15.542655 255.304680 -0.000000 0.306732 0.178587 -0.137436 79.808199 78.870172 -0.000000 0.218732 0.481410 -0.375412
0.025000 16.109754 255.497584 -0.000000 0.306753 0.178470 -0.137381 79.795332 78.934751 -0.000000 0.218806 0.481372 -0.375480
0.030000 16.487894 255.616472 -0.000000 0.306763 0.178453 -0.137405 79.727737 78.931153 -0.000000 0.218704 0.481446 -0.375349
0.035000 16.859447 255.657055 -0.000000 0.306763 0.178455 -0.137394 79.652035 78.818139 -0.000000 0.218707 0.481434 -0.375327
0.040000 17.155895 255.629708 -0.000000 0.306769 0.178448 -0.137397 79.547581 78.648357 -0.000000 0.218704 0.481438 -0.375319
0.045000 17.389780 255.542354 -0.000000 0.306786 0.178457 -0.137404 79.428862 78.447725 -0.000000 0.218716 0.481450 -0.375316
0.050000 17.576587 255.417422 -0.000000 0.306779 0.178441 -0.137399 79.314638 78.228965 -0.000000 0.218716 0.481452 -0.375310
0.055000 17.706802 255.292994 -0.000000 0.306783 0.178429 -0.137395 79.216230 78.001048 -0.000000 0.218725 0.481468 -0.375313
0.060000 17.768157 255.200486 -0.000000 0.306800 0.178430 -0.137408 79.141876 77.767096 -0.000000 0.218735 0.481462 -0.375315
0.065000 17.802477 255.144994 -0.000000 0.306808 0.178431 -0.137405 79.110525 77.514398 -0.000000 0.218749 0.481461 -0.375309
0.070000 17.817744 255.118239 -0.000000 0.306814 0.178409 -0.137399 79.121470 77.254206 -0.000000 0.218760 0.481466 -0.375304
0.075000 17.918639 255.103552 -0.000000 0.306813 0.178404 -0.137392 79.189052 76.989826 -0.000000 0.218773 0.481887 -0.375295
0.080000 17.913617 255.109224 -0.000000 0.306840 0.178382 -0.137406 79.226553 76.826412 -0.000000 0.218786 0.481906 -0.375285
0.085000 17.916360 255.127970 -0.000000 0.306871 0.178359 -0.137405 79.242307 76.759024 -0.000000 0.218801 0.481913 -0.375297
0.090000 17.949126 255.161741 -0.000000 0.306873 0.178369 -0.137405 79.231679 76.785260 -0.000000 0.218816 0.481914 -0.375290
0.095000 17.894065 255.214118 -0.000000 0.306885 0.178353 -0.137418 79.164682 76.923977 -0.000000 0.218829 0.481484 -0.375295
0.100000 18.024346 255.251189 -0.000000 0.306897 0.178355 -0.137410 79.141565 77.053708 -0.000000 0.218839 0.481912 -0.375288
0.105000 18.041597 255.284547 -0.000000 0.306912 0.178352 -0.137416 79.093203 77.222121 -0.000000 0.218843 0.481921 -0.375295
0.110000 18.081119 255.308944 -0.000000 0.306894 0.178343 -0.137412 79.074938 77.354623 -0.000000 0.218862 0.481930 -0.375277
0.115000 18.103956 255.334965 -0.000000 0.306894 0.178325 -0.137404 79.080577 77.443715 -0.000000 0.218878 0.481935 -0.375285
0.120000 18.180223 255.359378 -0.000000 0.306847 0.178311 -0.137516 79.130190 77.441798 -0.000000 0.218897 0.481932 -0.375283
0.125000 18.231650 255.386198 -0.000000 0.306856 0.178298 -0.137519 79.189198 77.357937 -0.000000 0.218903 0.481943 -0.375279
0.130000 18.330352 255.409655 -0.000000 0.306852 0.178281 -0.137506 79.253691 77.202887 -0.000000 0.218926 0.481956 -0.375263
0.135000 18.421091 255.431061 -0.000000 0.306865 0.178274 -0.137495 79.279762 77.051555 -0.000000 0.218937 0.481974 -0.375272
0.140000 18.510463 255.441099 -0.000000 0.306882 0.178251 -0.137497 79.263182 76.934474 -0.000000 0.218950 0.481924 -0.375273
0.145000 18.638166 255.421787 -0.000000 0.306885 0.178224 -0.137492 79.227489 76.854033 -0.000000 0.218974 0.481937 -0.375251
0.150000 18.755590 255.362135 -0.000000 0.306893 0.178216 -0.137489 79.168142 76.852125 -0.000000 0.218995 0.481954 -0.375251
0.155000 18.873751 255.259466 -0.000000 0.306890 0.178199 -0.137473 79.091172 76.952248 -0.000000 0.219011 0.481949 -0.375251
0.160000 19.000990 255.131631 -0.000000 0.306887 0.178169 -0.137481 79.000942 77.143269 -0.000000 0.219028 0.481969 -0.375268
0.165000 19.101346 255.015065 -0.000000 0.306908 0.178162 -0.137481 78.893781 77.381439 -0.000000 0.219057 0.481980 -0.375256
0.170000 19.189607 254.941505 -0.000000 0.306913 0.178115 -0.137467 78.787319 77.585129 -0.000000 0.219081 0.481991 -0.375257
0.175000 19.213685 254.933225 -0.000000 0.306914 0.178100 -0.137475 78.681679 77.705764 -0.000000 0.219098 0.482016 -0.375245
0.180000 19.160954 254.989863 -0.000000 0.306935 0.178080 -0.137477 78.587270 77.713483 -0.000000 0.219125 0.482037 -0.375227
0.185000 19.074332 255.088140 -0.000000 0.306931 0.178039 -0.137470 78.523794 77.593210 -0.000000 0.219154 0.482063 -0.375229
0.190000 18.927547 255.204905 -0.000000 0.306936 0.178027 -0.137453 78.478546 77.384654 -0.000000 0.219179 0.482059 -0.375235
0.195000 18.775391 255.319330 -0.000000 0.306934 0.178001 -0.137449 78.451665 77.137148 -0.000000 0.219195 0.482089 -0.375200
